<svg width="41" height="41" viewBox="0 0 41 41" fill="none" xmlns="http://www.w3.org/2000/svg">
<path d="M23.95 39.15C23.35 39.75 22.625 40.05 21.775 40.05C20.925 40.05 20.2 39.75 19.6 39.15L0.85 20.4C0.516667 20.0667 0.291667 19.7167 0.175 19.35C0.0583333 18.9833 0 18.6 0 18.2V3C0 2.13333 0.283333 1.41667 0.85 0.85C1.41667 0.283333 2.13333 0 3 0H18.2C18.6 0 19 0.0583333 19.4 0.175C19.8 0.291667 20.1667 0.516667 20.5 0.85L39.15 19.5C39.7833 20.1333 40.1 20.875 40.1 21.725C40.1 22.575 39.7833 23.3167 39.15 23.95L23.95 39.15ZM21.9 37.1L37.1 21.9L18.2 3H3V18.2L21.9 37.1ZM8.25 10.8C8.95 10.8 9.55833 10.5417 10.075 10.025C10.5917 9.50833 10.85 8.9 10.85 8.2C10.85 7.5 10.5917 6.89167 10.075 6.375C9.55833 5.85833 8.95 5.6 8.25 5.6C7.55 5.6 6.94167 5.85833 6.425 6.375C5.90833 6.89167 5.65 7.5 5.65 8.2C5.65 8.9 5.90833 9.50833 6.425 10.025C6.94167 10.5417 7.55 10.8 8.25 10.8Z" fill="#FF005C"/>
</svg>
